<mxfile host="app.diagrams.net" modified="2024-04-28T12:43:28.435Z" agent="Mozilla/5.0 (X11; Linux x86_64) AppleWebKit/537.36 (KHTML, like Gecko) Chrome/114.0.0.0 Safari/537.36" version="24.2.2" etag="cQdihw4R5jBzp_sHPO_C" type="github">
  <diagram name="Page-1" id="eNZkA2NTbnl7GuclhR5Z">
    <mxGraphModel>
      <root>
        <mxCell id="0" />
        <mxCell id="1" parent="0" />
      </root>
    </mxGraphModel>
  </diagram>
</mxfile>
